<?xml version="1.0" encoding="utf-8"?>
<!-- Generator: Adobe Illustrator 21.0.2, SVG Export Plug-In . SVG Version: 6.00 Build 0)  -->
<svg version="1.1" id="레이어_1" xmlns="http://www.w3.org/2000/svg" xmlns:xlink="http://www.w3.org/1999/xlink" x="0px"
	 y="0px" viewBox="0 0 232 53.1" style="enable-background:new 0 0 232 53.1;" xml:space="preserve">
<style type="text/css">
	.st0{fill:#131313;}
</style>
<g>
	<g>
		<path class="st0" d="M22.4,1.5L2.6,51.8H14L33.3,1.5H22.4z"/>
		<polygon class="st0" points="53.1,51.8 41.3,51.8 33.8,31.6 32,36.3 23.6,36.3 35.2,6.4 		"/>
	</g>
	<path class="st0" d="M155.1,1.6L144,31.5l0.8,6.5L131.2,1.6h-13.4v50.2h10.3V21.8l11.2,29.9h7.7l11.2-30.2v30.2h10.3V1.6H155.1z"/>
	<path class="st0" d="M108.8,24.5c-0.4,8.5-3.1,15.4-8,20.5C96,50,90,52.5,82.7,52.5c-3.7,0-7.3-0.8-10.6-2.3
		c-3.3-1.5-6.2-3.6-8.8-6.3c-2.1-2.5-3.7-5.2-4.8-8.1c-1.1-3.1-1.7-6.2-1.7-9.5c0-3.5,0.7-6.8,2-10c1.3-3.2,3.3-6,5.8-8.5
		c2.5-2.5,5.2-4.3,8.3-5.5c3.1-1.2,6.5-1.8,10.2-1.8c5.2,0,9.7,1.3,13.7,3.9c4.1,2.8,7.4,6.9,9.9,12.5H95.4
		c-2.9-3.8-7.4-6.3-12.6-6.3c-8.7,0-15.7,7-15.7,15.7c0,7.1,4.8,13.2,11.3,15.1c1.4,0.4,2.9,0.6,4.4,0.6c0.3,0,0.6,0,1,0
		c0.3,0,0.6,0,0.9-0.1c0.2,0,0.4,0,0.5-0.1c0.3,0,0.5-0.1,0.8-0.1c0.8-0.1,1.5-0.3,2.2-0.6c0.2-0.1,0.5-0.2,0.7-0.3
		c0.2-0.1,0.5-0.2,0.7-0.3c0.6-0.3,1.2-0.6,1.8-1.1c1.5-0.9,2.7-2.1,3.8-3.5l6.1-1.4H80.3V24.5H108.8z"/>
	<path class="st0" d="M229.4,24.5c-0.4,8.5-3.1,15.4-8,20.5c-4.8,5-10.8,7.5-18.1,7.5c-3.7,0-7.3-0.8-10.6-2.3
		c-3.3-1.5-6.2-3.6-8.8-6.3c-2.1-2.5-3.7-5.2-4.8-8.1c-1.1-3.1-1.7-6.2-1.7-9.5c0-3.5,0.7-6.8,2-10c1.3-3.2,3.3-6,5.8-8.5
		c2.5-2.5,5.2-4.3,8.3-5.5c3.1-1.2,6.5-1.8,10.2-1.8c5.2,0,9.7,1.3,13.7,3.9c4.1,2.8,7.4,6.9,9.9,12.5H216
		c-2.9-3.8-7.4-6.3-12.6-6.3c-8.7,0-15.7,7-15.7,15.7c0,7.1,4.8,13.2,11.3,15.1c1.4,0.4,2.9,0.6,4.4,0.6c0.3,0,0.6,0,1,0
		c0.3,0,0.6,0,0.9-0.1c0.2,0,0.4,0,0.5-0.1c0.3,0,0.5-0.1,0.8-0.1c0.8-0.1,1.5-0.3,2.2-0.6c0.2-0.1,0.5-0.2,0.7-0.3
		c0.2-0.1,0.5-0.2,0.7-0.3c0.6-0.3,1.2-0.6,1.8-1.1c1.5-0.9,2.7-2.1,3.8-3.5l6.1-1.4h-21.1V24.5H229.4z"/>
</g>
</svg>
